#!OML:ASF E:\Steps\Project 1\Capture day 1\Session 2\Subject.ASF
:FULLY-SPECIFIED
:DEGREES
140
root -0.830837 19.2553 20.5785 -156.614 -3.21921 182.647
lowerback -23.4467 -4.18697 -8.76576
upperback -0.225181 -3.56264 0.984422
thorax 13.5658 -2.37945 4.87769
lowerneck -3.5872 -6.43713 -0.383152
upperneck 25.4931 -7.40319 1.58413
head 8.58191 -2.64005 0.0926382
rclavicle 3.37934e-015 2.94201e-014
rhumerus -40.6794 -21.3238 -74.3084
rradius 30.3183
rwrist -2.75036
rhand -2.06052 -58.0346
rfingers 7.12502
rthumb 23.6153 -86.6044
lclavicle 3.37934e-015 2.94201e-014
lhumerus -30.9161 3.19356 77.5648
lradius 19.4913
lwrist -2.05761
lhand -20.631 -10.9743
lfingers 7.12502
lthumb 5.73058 18.9282
rfemur -43.8071 0.524705 13.01
rtibia 34.7548
rfoot -4.37844 -8.87766
rtoes -18.4244
lfemur -34.0202 -12.2439 -15.6254
ltibia 35.448
lfoot -22.6449 5.31215
ltoes -20.472
141
root -0.810344 19.2296 20.5633 -156.605 -3.47214 182.702
lowerback -23.4017 -4.18814 -8.72438
upperback -0.224995 -3.57704 0.972397
thorax 13.5395 -2.3813 4.83656
lowerneck -3.56764 -6.48206 -0.314797
upperneck 25.5629 -7.45635 1.56398
head 8.59933 -2.65369 0.0709402
rclavicle -9.14409e-015 -7.15625e-015
rhumerus -41.1281 -21.5252 -74.0592
rradius 30.243
rwrist -2.81036
rhand -1.79451 -58.3535
rfingers 7.12502
rthumb 23.8705 -86.8901
lclavicle -9.14409e-015 -7.15625e-015
lhumerus -30.8457 3.14526 77.4357
lradius 19.6197
lwrist -2.05766
lhand -20.5398 -10.7025
lfingers 7.12502
lthumb 5.81865 19.1976
rfemur -43.5201 0.736091 12.3568
rtibia 33.4271
rfoot -3.33845 -9.08508
rtoes -20.1828
lfemur -34.3509 -12.3566 -15.4123
ltibia 36.1091
lfoot -22.9586 5.14562
ltoes -20.2855
142
root -0.789862 19.1995 20.5423 -156.6 -3.83635 182.781
lowerback -23.3288 -4.19109 -8.6356
upperback -0.234454 -3.61094 0.971338
thorax 13.4867 -2.38816 4.77523
lowerneck -3.61447 -6.56978 -0.243329
upperneck 25.5874 -7.59281 1.58063
head 8.61574 -2.70792 0.0516161
rclavicle -1.35174e-014 1.51076e-014
rhumerus -41.5549 -22.0455 -73.6771
rradius 30.0407
rwrist -2.43611
rhand -1.63643 -58.4314
rfingers 7.12502
rthumb 24.0221 -86.9482
lclavicle -1.35174e-014 1.51076e-014
lhumerus -30.782 2.99729 77.3807
lradius 19.7355
lwrist -1.99635
lhand -20.4976 -10.833
lfingers 7.12502
lthumb 5.8594 19.066
rfemur -43.1273 0.888781 11.7764
rtibia 32.0184
rfoot -2.48243 -9.08122
rtoes -21.1364
lfemur -34.6217 -12.4917 -15.1707
ltibia 36.7107
lfoot -23.3313 4.9654
ltoes -20.5914
143
root -0.76712 19.1693 20.5207 -156.664 -4.19298 182.897
lowerback -23.2532 -4.1504 -8.56091
upperback -0.255648 -3.58742 0.997033
thorax 13.4123 -2.37021 4.77432
lowerneck -3.35274 -6.59461 -0.255716
upperneck 25.4923 -7.61541 1.64357
head 8.53864 -2.71133 0.08275
rclavicle 2.18663e-014 -3.97569e-015
rhumerus -42.096 -22.5573 -73.214
rradius 29.8495
rwrist -2.23315
rhand -1.62946 -58.8732
rfingers 7.12502
rthumb 24.0287 -87.3891
lclavicle 2.18663e-014 -3.97569e-015
lhumerus -30.8381 2.50995 77.4758
lradius 19.9492
lwrist -1.78486
lhand -20.5233 -11.0568
lfingers 7.12502
lthumb 5.83461 18.8429
rfemur -42.5903 1.08063 11.2507
rtibia 30.5087
rfoot -1.62702 -8.93681
rtoes -22.7403
lfemur -34.828 -12.4936 -14.9266
ltibia 37.3605
lfoot -23.6228 4.7201
ltoes -20.724
144
root -0.742827 19.1384 20.4996 -156.718 -4.50375 182.888
lowerback -23.1803 -4.16651 -8.61569
upperback -0.284605 -3.60247 0.991791
thorax 13.3428 -2.37793 4.79748
lowerneck -3.05517 -6.56875 -0.269111
upperneck 25.457 -7.54826 1.68142
head 8.47357 -2.6691 0.114301
rclavicle 4.57205e-015 -1.59028e-015
rhumerus -42.6101 -22.642 -72.9801
rradius 29.7049
rwrist -2.58067
rhand -2.13534 -59.101
rfingers 7.12502
rthumb 23.5436 -87.68
lclavicle 4.57205e-015 -1.59028e-015
lhumerus -30.9721 2.14121 77.4523
lradius 20.2211
lwrist -1.61514
lhand -20.6351 -11.3232
lfingers 7.12502
lthumb 5.7267 18.5794
rfemur -42.0179 1.19439 10.5848
rtibia 28.9319
rfoot -0.846297 -8.69372
rtoes -22.1635
lfemur -35.0869 -12.5675 -14.8118
ltibia 38.0974
lfoot -23.9805 4.36303
ltoes -19.892
145
root -0.716236 19.1073 20.4752 -156.793 -4.79347 182.774
lowerback -23.1333 -4.24445 -8.79662
upperback -0.0362314 -3.62309 0.961842
thorax 13.6257 -2.40506 4.85582
lowerneck -3.8689 -6.63523 -0.121878
upperneck 25.6218 -7.72347 1.63224
head 8.67287 -2.75166 0.0292049
rclavicle -2.78299e-015 1.51076e-014
rhumerus -42.4131 -22.9814 -72.8829
rradius 29.4346
rwrist -1.99549
rhand -1.86464 -59.2444
rfingers 7.12502
rthumb 23.8032 -87.7898
lclavicle -2.78299e-015 1.51076e-014
lhumerus -30.4853 2.0368 77.4096
lradius 20.4464
lwrist -1.37937
lhand -20.7639 -11.3368
lfingers 7.12502
lthumb 5.60229 18.5692
rfemur -41.3775 1.31385 9.82781
rtibia 27.3236
rfoot -0.0479995 -8.41139
rtoes -20.318
lfemur -35.2456 -12.7036 -14.8062
ltibia 38.7432
lfoot -24.4264 3.92263
ltoes -18.7505
146
root -0.688794 19.0782 20.4479 -156.935 -5.03941 182.727
lowerback -23.0609 -4.21604 -8.90311
upperback -0.0957731 -3.56363 0.898257
thorax 13.5066 -2.37883 4.8687
lowerneck -2.98213 -6.81604 -0.0325938
upperneck 25.2853 -7.9334 1.66968
head 8.39514 -2.84221 0.0430662
rclavicle 2.94201e-014 8.74653e-015
rhumerus -43.1886 -23.2792 -72.4311
rradius 29.3232
rwrist -1.76835
rhand -1.75642 -58.8039
rfingers 7.12502
rthumb 23.907 -87.3358
lclavicle 2.94201e-014 8.74653e-015
lhumerus -30.8223 1.75782 77.3498
lradius 20.8518
lwrist -1.21738
lhand -20.7384 -11.1869
lfingers 7.12502
lthumb 5.62694 18.7183
rfemur -40.6734 1.59499 9.1831
rtibia 25.7449
rfoot 0.650149 -7.94931
rtoes -19.7646
lfemur -35.2696 -12.7336 -14.7599
ltibia 39.3333
lfoot -24.8551 3.567
ltoes -18.5621
147
root -0.660652 19.0478 20.4232 -156.998 -5.27564 182.793
lowerback -23.0918 -4.19873 -8.91997
upperback 0.117364 -3.50469 0.906904
thorax 13.7706 -2.36077 4.90478
lowerneck -3.52362 -6.86727 -0.00573588
upperneck 25.3631 -8.0754 1.73077
head 8.52391 -2.90816 0.0266535
rclavicle -2.0276e-014 8.74653e-015
rhumerus -43.2293 -23.9366 -72.1314
rradius 29.1154
rwrist -1.4473
rhand -1.32289 -58.2496
rfingers 7.12502
rthumb 24.3227 -86.7264
lclavicle -2.0276e-014 8.74653e-015
lhumerus -30.4091 1.72434 77.334
lradius 21.0604
lwrist -1.2504
lhand -20.9509 -11.2298
lfingers 7.12502
lthumb 5.42178 18.6809
rfemur -40.0832 1.95818 8.65482
rtibia 24.186
rfoot 1.2673 -7.50212
rtoes -18.8477
lfemur -35.4852 -12.7009 -14.5541
ltibia 40.0409
lfoot -25.2616 3.28876
ltoes -18.3204
148
root -0.630147 19.0171 20.3988 -157.009 -5.59877 182.875
lowerback -22.8679 -4.24502 -8.94556
upperback -0.414851 -3.65417 0.93326
thorax 13.0399 -2.41001 4.91449
lowerneck -1.37318 -7.00132 -0.139934
upperneck 24.9506 -8.05949 1.82195
head 8.00496 -2.87938 0.162553
rclavicle 1.78906e-015 -1.74931e-014
rhumerus -44.8312 -23.6316 -71.5217
rradius 29.0895
rwrist -1.41545
rhand -1.41886 -58.4819
rfingers 7.12502
rthumb 24.2307 -86.971
lclavicle 1.78906e-015 -1.74931e-014
lhumerus -31.2839 1.42686 77.2199
lradius 21.0514
lwrist -1.21796
lhand -21.4213 -11.3099
lfingers 7.12502
lthumb 4.9676 18.6119
rfemur -39.4905 2.42377 8.07684
rtibia 22.6396
rfoot 1.89931 -7.77674
rtoes -17.9423
lfemur -35.8205 -12.8094 -14.251
ltibia 40.8006
lfoot -25.654 3.17271
ltoes -18.502
149
root -0.599201 18.9794 20.3699 -156.887 -5.67558 182.924
lowerback -23.2204 -4.1643 -9.04582
upperback 0.155883 -3.41781 1.00044
thorax 13.8904 -2.33828 5.11216
lowerneck -3.73866 -7.04655 -0.367411
upperneck 25.4791 -8.36001 2.02652
head 8.63869 -3.04252 0.151375
rclavicle -1.76918e-014 -2.46493e-014
rhumerus -43.7297 -24.4102 -71.6012
rradius 28.6485
rwrist -1.57058
rhand -2.3802 -57.7831
rfingers 7.12502
rthumb 23.3087 -86.392
lclavicle -1.76918e-014 -2.46493e-014
lhumerus -30.1621 1.74137 77.3467
lradius 21.4001
lwrist -1.39341
lhand -21.5297 -11.388
lfingers 7.12502
lthumb 4.86287 18.5362
rfemur -39.1735 3.00893 7.46713
rtibia 21.2409
rfoot 2.4353 -8.3828
rtoes -18.5906
lfemur -36.1841 -12.7872 -14.0419
ltibia 41.4488
lfoot -26.0382 3.3606
ltoes -20.0357
150
root -0.567493 18.9457 20.3523 -156.811 -5.76802 182.908
lowerback -23.2565 -4.12979 -9.15542
upperback 0.194339 -3.32668 0.934782
thorax 13.9439 -2.30403 5.13016
lowerneck -3.82197 -7.15234 -0.152591
upperneck 25.5496 -8.54583 2.0857
head 8.67393 -3.09797 0.116961
rclavicle 2.3059e-014 5.56597e-015
rhumerus -43.9257 -24.8493 -71.3332
rradius 28.3773
rwrist -1.03957
rhand -1.6429 -58.4084
rfingers 7.12502
rthumb 24.0159 -86.9259
lclavicle 2.3059e-014 5.56597e-015
lhumerus -29.684 1.6151 77.2567
lradius 21.2753
lwrist -1.16277
lhand -21.5819 -11.3612
lfingers 7.12502
lthumb 4.81248 18.5641
rfemur -38.8961 3.45891 6.86462
rtibia 19.9183
rfoot 2.89309 -8.95978
rtoes -20.4994
lfemur -36.6111 -12.7088 -13.9325
ltibia 42.2296
lfoot -26.4039 3.30057
ltoes -20.7653
151
root -0.533954 18.9163 20.3226 -157.033 -6.1096 182.854
lowerback -22.8688 -4.15153 -9.29592
upperback 0.145753 -3.35349 0.892196
thorax 13.6772 -2.31299 5.16545
lowerneck -3.57562 -7.14468 -0.0952986
upperneck 25.6156 -8.49847 2.09447
head 8.64861 -3.05423 0.124869
rclavicle 0 1.59028e-014
rhumerus -44.5173 -25.0174 -71.0527
rradius 28.185
rwrist -1.41075
rhand -1.32579 -60.6865
rfingers 7.12502
rthumb 24.3199 -89.1636
lclavicle 0 1.59028e-014
lhumerus -30.4648 1.4287 77.0998
lradius 22.2574
lwrist -0.836361
lhand -21.5359 -11.0808
lfingers 7.12502
lthumb 4.85687 18.8435
rfemur -38.0405 4.08855 6.1724
rtibia 18.4136
rfoot 3.37283 -10.1569
rtoes -21.2709
lfemur -36.656 -12.8374 -13.8465
ltibia 42.9486
lfoot -26.8176 2.84453
ltoes -19.6309
152
root -0.497853 18.8799 20.2882 -157.063 -6.39762 182.893
lowerback -22.6926 -4.21303 -9.40228
upperback 0.0164908 -3.44619 0.952808
thorax 13.451 -2.35621 5.27153
lowerneck -3.37268 -7.12356 -0.214604
upperneck 25.6891 -8.42145 2.11425
head 8.64245 -3.01422 0.165658
rclavicle -2.56432e-014 1.66979e-014
rhumerus -45.1282 -25.1077 -70.6094
rradius 28.0778
rwrist -0.724329
rhand -1.13563 -60.2733
rfingers 7.12502
rthumb 24.5022 -88.7259
lclavicle -2.56432e-014 1.66979e-014
lhumerus -30.5933 1.499 77.0233
lradius 22.4098
lwrist -0.541812
lhand -21.4111 -10.8788
lfingers 7.12502
lthumb 4.97738 19.0428
rfemur -37.4381 4.88041 5.52108
rtibia 16.9935
rfoot 3.68071 -11.7068
rtoes -19.9027
lfemur -36.8608 -12.9239 -13.6123
ltibia 43.6584
lfoot -27.3547 2.64515
ltoes -19.3154
153
root -0.463044 18.8414 20.2578 -156.978 -6.70873 182.862
lowerback -22.854 -4.32094 -9.55337
upperback 0.0822378 -3.53036 0.998564
thorax 13.6493 -2.4148 5.37331
lowerneck -3.36996 -7.20405 -0.209051
upperneck 25.5882 -8.54613 2.09556
head 8.6078 -3.08449 0.147907
rclavicle -1.5704e-014 -2.54444e-014
rhumerus -45.241 -25.2281 -70.4753
rradius 27.9311
rwrist -0.351475
rhand -1.98783 -58.7946
rfingers 7.12502
rthumb 23.6851 -87.3554
lclavicle -1.5704e-014 -2.54444e-014
lhumerus -30.2845 1.74942 76.9194
lradius 22.4385
lwrist -0.541736
lhand -21.1672 -11.0829
lfingers 7.12502
lthumb 5.21289 18.833
rfemur -36.9171 5.46118 4.89324
rtibia 15.5458
rfoot 3.94021 -12.9945
rtoes -18.9116
lfemur -37.2287 -13.1011 -13.4185
ltibia 44.4535
lfoot -27.9317 2.58506
ltoes -19.8602
154
root -0.427679 18.8076 20.2261 -157.05 -6.86911 182.864
lowerback -22.9368 -4.30611 -9.65315
upperback 0.216759 -3.45396 0.961438
thorax 13.8477 -2.3932 5.40973
lowerneck -3.25352 -4.46562 -0.242729
upperneck 25.2472 -9.72586 2.99701
head 8.55785 -5.24845 0.107336
rclavicle 1.64991e-014 1.27222e-014
rhumerus -45.4487 -25.7507 -70.1834
rradius 27.7647
rwrist 0.132053
rhand -2.13227 -58.6468
rfingers 7.12502
rthumb 23.5465 -87.2254
lclavicle 1.64991e-014 1.27222e-014
lhumerus -30.0563 1.96314 76.746
lradius 22.5253
lwrist -0.7925
lhand -21.1885 -11.3257
lfingers 7.12502
lthumb 5.19231 18.5907
rfemur -36.2811 6.02021 4.43231
rtibia 14.1604
rfoot 4.53769 -13.9205
rtoes -19.5079
lfemur -37.3402 -13.2118 -13.2562
ltibia 45.0438
lfoot -28.3459 2.35168
ltoes -19.1883
